<?xml version="1.0" encoding="utf-8"?>
<!-- Generator: Adobe Illustrator 16.0.0, SVG Export Plug-In . SVG Version: 6.00 Build 0)  -->
<!DOCTYPE svg PUBLIC "-//W3C//DTD SVG 1.1//EN" "http://www.w3.org/Graphics/SVG/1.1/DTD/svg11.dtd">
<svg version="1.1" id="Layer_1" xmlns="http://www.w3.org/2000/svg" xmlns:xlink="http://www.w3.org/1999/xlink" x="0px" y="0px"
	 width="150px" height="150px" viewBox="0 0 150 150" enable-background="new 0 0 150 150" xml:space="preserve">
<g id="twitter">
	<circle fill="#21AAE1" cx="75" cy="74.768" r="75"/>
	<g enable-background="new    ">
		<path fill="#FFFFFF" d="M124.471,44.697c-2.805,4.102-6.194,7.596-10.17,10.483c0.041,0.587,0.062,1.466,0.062,2.637
			c0,5.441-0.796,10.872-2.386,16.292c-1.591,5.42-4.008,10.621-7.251,15.602c-3.244,4.98-7.105,9.385-11.582,13.215
			c-4.479,3.828-9.879,6.885-16.197,9.164c-6.32,2.283-13.08,3.422-20.278,3.422c-11.343,0-21.722-3.033-31.139-9.102
			c1.464,0.166,3.097,0.25,4.897,0.25c9.417,0,17.808-2.887,25.174-8.664c-4.395-0.082-8.329-1.432-11.803-4.049
			c-3.474-2.615-5.86-5.953-7.157-10.014c1.381,0.211,2.657,0.314,3.83,0.314c1.799,0,3.579-0.229,5.336-0.689
			c-4.688-0.963-8.569-3.297-11.646-7.001s-4.614-8.005-4.614-12.901v-0.251c2.846,1.591,5.901,2.448,9.166,2.574
			c-2.762-1.842-4.959-4.248-6.592-7.22s-2.448-6.193-2.448-9.668c0-3.683,0.92-7.095,2.762-10.233
			c5.063,6.237,11.227,11.228,18.488,14.973c7.261,3.746,15.036,5.829,23.323,6.247c-0.335-1.591-0.502-3.14-0.502-4.646
			c0-5.608,1.978-10.391,5.933-14.346c3.955-3.955,8.736-5.932,14.346-5.932c5.858,0,10.797,2.134,14.815,6.403
			c4.561-0.879,8.852-2.511,12.869-4.896c-1.549,4.813-4.52,8.538-8.914,11.175C116.686,47.418,120.578,46.371,124.471,44.697z"/>
	</g>
</g>
</svg>
